<svg width="525" height="525" viewBox="0 0 525 525" fill="none" xmlns="http://www.w3.org/2000/svg">
    <rect width="525" height="525" rx="100" fill="#1DA3FF"/>
    <rect x="66.1329" y="13" width="450" height="450" transform="rotate(6.78092 66.1329 13)" fill="#33ADFF"/>
    <rect x="86.5018" y="15.2125" width="430" height="430" transform="rotate(9.54309 86.5018 15.2125)" fill="#66C2FF"/>
    <rect x="110.665" y="21" width="400" height="400" transform="rotate(13.8371 110.665 21)" fill="#99D6FF"/>
    <rect x="153.75" y="30.5146" width="360" height="360" transform="rotate(20.8677 153.75 30.5146)" fill="#CCEBFF"/>
    <rect x="118" y="123" width="279" height="279" fill="#E6F5FF"/>
    <path d="M311.233 341.098C311.187 350.964 309.548 359.423 306.315 366.475C302.949 373.526 298.258 378.971 292.24 382.81C286.089 386.649 278.813 388.548 270.413 388.51L270.512 367.11C277.179 367.141 282.456 364.832 286.344 360.183C290.099 355.534 291.996 349.076 292.034 340.809C292.069 333.076 290.231 327.001 286.518 322.583C282.805 318.166 277.682 315.942 271.148 315.912C265.682 315.887 260.941 317.399 256.927 320.447C252.914 323.362 250.161 327.616 248.668 333.209L243.183 351.584C240.068 362.236 234.829 370.479 227.469 376.311C219.976 382.01 211.096 384.836 200.83 384.788C192.83 384.751 185.838 382.919 179.855 379.291C173.872 375.664 169.229 370.509 165.926 363.827C162.624 357.145 160.993 349.271 161.035 340.204C161.097 326.871 164.746 316.221 171.983 308.254C179.22 300.154 188.906 296.066 201.04 295.988L200.94 317.588C194.54 317.559 189.531 319.602 185.911 323.719C182.16 327.702 180.267 333.36 180.233 340.693C180.2 347.759 181.908 353.301 185.356 357.317C188.671 361.332 193.395 363.354 199.528 363.382C204.995 363.407 209.735 361.963 213.749 359.048C217.763 356 220.583 351.679 222.209 346.087L227.894 327.513C230.877 316.86 236.115 308.684 243.608 302.985C251.101 297.286 260.047 294.461 270.447 294.509C278.581 294.546 285.772 296.513 292.02 300.409C298.136 304.303 302.911 309.726 306.345 316.675C309.647 323.623 311.276 331.764 311.233 341.098Z"
          fill="#002640"/>
    <path d="M241.161 183.054C241.133 189.054 239.444 193.913 236.094 197.631C232.744 201.215 228.402 202.995 223.069 202.971C217.602 202.945 213.277 201.125 210.094 197.511C206.778 193.762 205.134 188.888 205.162 182.888C205.189 176.888 206.878 172.095 210.228 168.511C213.445 164.792 217.787 162.946 223.254 162.971C228.587 162.996 232.912 164.882 236.228 168.631C239.544 172.246 241.189 177.054 241.161 183.054ZM319.16 183.414C319.133 189.414 317.443 194.273 314.093 197.991C310.743 201.575 306.401 203.355 301.068 203.331C295.602 203.305 291.277 201.485 288.093 197.871C284.777 194.122 283.133 189.248 283.161 183.248C283.188 177.248 284.877 172.456 288.227 168.871C291.444 165.153 295.786 163.306 301.253 163.331C306.586 163.356 310.911 165.242 314.227 168.991C317.544 172.606 319.188 177.414 319.16 183.414Z"
          fill="#002640"/>
    <path d="M260.285 261.326L268.544 261.364C275.638 261.397 281.01 260.115 284.662 257.518C288.221 254.921 290.014 250.776 290.04 245.083C290.066 239.483 288.647 233.457 285.783 227.003L295.459 223.548C298.877 231.217 300.57 238.645 300.536 245.832C300.495 254.791 297.617 261.592 291.902 266.232C286.187 270.872 278.383 273.17 268.49 273.124L260.23 273.086C250.337 273.04 242.555 270.671 236.883 265.978C231.211 261.285 228.396 254.459 228.437 245.499C228.453 242.139 228.935 238.688 229.885 235.145C230.742 231.509 231.972 227.875 233.575 224.242L243.359 227.787C242.038 230.861 240.998 233.843 240.238 236.733C239.478 239.53 239.092 242.234 239.08 244.848C239.054 250.541 240.855 254.703 244.483 257.333C248.017 259.963 253.285 261.294 260.285 261.326Z"
          fill="#002640"/>
    <path d="M158.121 155.862C160.027 162.975 167.338 167.196 174.451 165.29C181.564 163.385 185.785 156.073 183.879 148.961C181.973 141.848 174.662 137.627 167.549 139.532C160.436 141.438 156.215 148.749 158.121 155.862ZM243.444 133L215.561 125.529L223.032 153.412L243.444 133ZM171.647 154.826L222.358 141.238L221.064 136.409L170.353 149.997L171.647 154.826Z"
          fill="#002640"/>
    <path d="M357.944 155.01C359.379 154.181 359.871 152.346 359.043 150.911L345.543 127.529C344.714 126.094 342.879 125.602 341.444 126.431C340.01 127.259 339.518 129.094 340.346 130.529L352.346 151.313L331.562 163.313C330.127 164.142 329.635 165.977 330.464 167.411C331.292 168.846 333.127 169.338 334.562 168.51L357.944 155.01ZM283.224 135.898L355.668 155.309L357.221 149.514L284.776 130.102L283.224 135.898Z"
          fill="#002640"/>
</svg>
